<svg xmlns="http://www.w3.org/2000/svg" viewBox="0 0 64 64" width="64" height="64">
  <rect width="64" height="64" fill="#2D1B2E"/>
  <rect x="24" y="24" width="16" height="20" fill="#4A9EFF"/>
  <rect x="26" y="26" width="12" height="16" fill="#5AADE8"/>
  <rect x="22" y="12" width="20" height="16" fill="#FFDAB9"/>
  <rect x="24" y="14" width="16" height="12" fill="#FFE4C4"/>
  <rect x="20" y="8" width="24" height="10" fill="#4A9EFF"/>
  <rect x="22" y="10" width="20" height="6" fill="#5AADE8"/>
  <rect x="30" y="4" width="4" height="8" fill="#FFD700"/>
  <rect x="26" y="16" width="4" height="4" fill="#2D1B2E"/>
  <rect x="34" y="16" width="4" height="4" fill="#2D1B2E"/>
  <rect x="42" y="16" width="6" height="32" fill="#C0C0C0"/>
  <rect x="43" y="18" width="4" height="28" fill="#E8E8E8"/>
  <rect x="38" y="44" width="14" height="4" fill="#8B4513"/>
  <rect x="8" y="24" width="12" height="16" fill="#4A9EFF"/>
  <rect x="10" y="26" width="8" height="12" fill="#5AADE8"/>
  <rect x="12" y="30" width="4" height="4" fill="#FFD700"/>
</svg>
